# AST/ASF file generated using VICON BodyLanguage
# -----------------------------------------------
:version 1.10
:name VICON
:units
  mass 1.0
  length 0.45
  angle deg
:documentation
   .ast/.asf automatically generated from VICON data using
   VICON BodyBuilder and BodyLanguage model FoxedUp or BRILLIANT.MOD
:root
   order TX TY TZ RX RY RZ
   axis XYZ
   position 0 0 0  
   orientation 0 0 0 
:bonedata
  begin
     id 1 
     name lhipjoint
     direction 0.575328 -0.747301 0.332475 
     length 2.40933 
     axis 0 0 0  XYZ
  end
  begin
     id 2 
     name lfemur
     direction 0.34202 -0.939693 0  
     length 7.31453  
     axis 0 0 20  XYZ
    dof rx ry rz
    limits (-160.0 20.0)
           (-70.0 70.0)
           (-60.0 70.0)
  end
  begin
     id 3 
     name ltibia
     direction 0.34202 -0.939693 0   
     length 7.82185   
     axis 0 0 20   XYZ
    dof rx
    limits (-10.0 170.0)
  end
  begin
     id 4 
     name lfoot
     direction 0.0795993 -0.218697 0.972541   
     length 2.19173   
     axis -90 7.62852e-016 20   XYZ
    dof rx rz
    limits (-45.0 90.0)
           (-70.0 20.0)
  end
  begin
     id 5 
     name ltoes
     direction 1.53537e-011 -4.21894e-011 1   
     length 1.10023   
     axis -90 7.62852e-016 20   XYZ
    dof rx
    limits (-90.0 20.0)
  end
  begin
     id 6 
     name rhipjoint
     direction -0.513884 -0.783789 0.348708   
     length 2.29716  
     axis 0 0 0  XYZ 
  end
  begin
     id 7 
     name rfemur
     direction -0.34202 -0.939693 0   
     length 7.59573   
     axis 0 0 -20   XYZ
    dof rx ry rz
    limits (-160.0 20.0)
           (-70.0 70.0)
           (-70.0 60.0)
  end
  begin
     id 8 
     name rtibia
     direction -0.34202 -0.939693 0   
     length 7.66402   
     axis 0 0 -20   XYZ
    dof rx
    limits (-10.0 170.0)
 end
 begin
     id 9 
     name rfoot
     direction -0.137793 -0.378584 0.915253   
     length 2.27056  
     axis -90 -7.62852e-016 -20   XYZ
    dof rx rz
    limits (-45.0 90.0)
           (-20.0 70.0)
  end
  begin
     id 10 
     name rtoes
     direction -1.53493e-011 -4.22159e-011 1   
     length 1.11766   
     axis -90 -7.62852e-016 -20   XYZ
    dof rx
    limits (-90.0 20.0)
  end
  begin
     id 11 
     name lowerback
     direction -0.00732775 0.998356 -0.05685   
     length 2.16513   
     axis 0 0 0   XYZ
    dof rx ry rz
    limits (-20.0 45.0)
           (-30.0 30.0)
           (-30.0 30.0)
  end
  begin
     id 12 
     name upperback
     direction 0.0218081 0.999627 -0.0164647   
     length 2.16755   
     axis 0 0 0   XYZ
    dof rx ry rz
    limits (-20.0 45.0)
           (-30.0 30.0)
           (-30.0 30.0)
  end
  begin
     id 13 
     name thorax
     direction 0.02365 0.999661 0.0108914   
     length 2.16932   
     axis 0 0 0   XYZ
    dof rx ry rz
    limits (-20.0 45.0)
           (-30.0 30.0)
           (-30.0 30.0)
  end
  begin
     id 14 
     name lowerneck
     direction -0.0523929 0.978385 0.200044   
     length 1.63877   
     axis 0 0 0   XYZ
    dof rx ry rz
    limits (-20.0 45.0)
           (-30.0 30.0)
           (-30.0 30.0)
  end
  begin
     id 15 
     name upperneck
     direction 0.0448674 0.981321 -0.187074   
     length 1.69014   
     axis 0 0 0   XYZ
    dof rx ry rz
    limits (-20.0 45.0)
           (-30.0 30.0)
           (-30.0 30.0)
  end
  begin
     id 16
     name head
     direction 0.0199089 0.996118 -0.0857429  
     length 1.70094  
     axis 0 0 0   XYZ
    dof rx ry rz
    limits (-20.0 45.0)
           (-30.0 30.0)
           (-30.0 30.0)
  end
  begin
     id 17 
     name lclavicle
     direction 0.940366 0.30191 -0.156722  
     length 3.37521  
     axis 0 0 0   XYZ
    dof ry rz
    limits (-20.0 10.0)
           (0.0 20.0)
  end
  begin
     id 18 
     name lhumerus
     direction 1 -4.4897e-011 -1.7911e-027   
     length 5.25287   
     axis 180 -30 -90   XYZ
    dof rx ry rz
    limits (-60.0 90.0)
           (-90.0 90.0)
           (-90.0 90.0)
  end
  begin
     id 19
     name lradius
     direction 1 -4.48951e-011 1.04424e-027   
     length 3.51014   
     axis 180 -30 -90   XYZ
    dof rx
    limits (-10.0 170.0)
  end
  begin
     id 20
     name lwrist
     direction 1 -4.48997e-011 -9.5942e-028   
     length 1.75507   
     axis 8.48502e-016 90 90   XYZ
    dof ry
    limits (-180.0 0.0)
 end
  begin
     id 21 
     name lhand
     direction 1 -4.48831e-011 -1.90777e-027   
     length 0.706179   
     axis 1.22306e-015 90 90   XYZ
    dof rx rz
    limits (-90.0 90.0)
           (-45.0 45.0)
  end
  begin
     id 22 
     name lfingers
     direction 1 -4.49108e-011 -3.85244e-027   
     length 0.569339   
     axis 2.44611e-015 90 90   XYZ
    dof rx
    limits (0.0 90.0)
  end
  begin
     id 23
     name lthumb
     direction 0.707107 -6.34953e-011 0.707107   
     length 0.817461   
     axis -90 45 -1.62303e-014   XYZ
    dof rx rz
    limits (-45.0 45.0)
           (-45.0 45.0)
  end
  begin
     id 24 
     name rclavicle
     direction -0.905329 0.382405 -0.184787   
     length 3.30787  
     axis 0 0 0   XYZ 
    dof ry rz
    limits (-10.0 20.0)
           (-20.0 0.0)
  end
  begin
     id 25 
     name rhumerus
     direction -1 -4.48953e-011 -9.15316e-029  
     length 5.28721   
     axis 180 30 90   XYZ
    dof rx ry rz
    limits (-90.0 60.0)
           (-90.0 90.0)
           (-90.0 90.0)
  end
  begin
     id 26 
     name rradius
     direction -1 -4.48987e-011 9.37824e-028   
     length 3.50544   
     axis 180 30 90   XYZ
    dof rx
    limits (-10.0 170.0)
  end
  begin
     id 27 
     name rwrist
     direction -1 -4.48967e-011 -9.58414e-028   
     length 1.75272   
     axis 8.48502e-016 -90 -90   XYZ
    dof ry
    limits (-180.0 0.0)
  end
  begin
     id 28
     name rhand
     direction -1 -4.48904e-011 -1.91266e-027   
     length 0.884996   
     axis 1.22306e-015 -90 -90   XYZ
    dof rx rz
    limits (-90.0 90.0)
           (-45.0 45.0)
  end
  begin
     id 29
     name rfingers
     direction -1 -4.4909e-011 -3.85015e-027   
     length 0.713507   
     axis 2.44611e-015 -90 -90   XYZ
    dof rx
    limits (0.0 90.0)
  end
  begin
     id 30
     name rthumb
     direction -0.707107 -6.34853e-011 0.707107   
     length 1.02446   
     axis -90 -45 1.62303e-014   XYZ
    dof rx rz
    limits (-45.0 45.0)
           (-45.0 45.0)
  end
:hierarchy
  begin
    root lhipjoint rhipjoint lowerback
    lhipjoint lfemur
    lfemur ltibia
    ltibia lfoot
    lfoot ltoes
    rhipjoint rfemur
    rfemur rtibia
    rtibia rfoot
    rfoot rtoes
    lowerback upperback
    upperback thorax
    thorax lowerneck lclavicle rclavicle
    lowerneck upperneck
    upperneck head
    lclavicle lhumerus
    lhumerus lradius
    lradius lwrist
    lwrist lhand lthumb
    lhand lfingers
    rclavicle rhumerus
    rhumerus rradius
    rradius rwrist
    rwrist rhand rthumb
    rhand rfingers
  end

#!OML:ASF F:\twosubjects\two\Thursday\Session 1\justin.ASF
:FULLY-SPECIFIED
:DEGREES
82
root 11.4058 18.4044 4.46445 -164.258 -8.44654 179.57
lowerback 7.86641 0.617023 2.8025
upperback 5.13745 0.212001 5.86479
thorax 0.922528 -0.24436 4.49109
lowerneck -12.099 -3.1299 -10.0104
upperneck 36.9454 -13.8077 13.925
head 17.3287 -6.92211 5.08678
rclavicle -1.74931e-014 -1.04958e-013
rhumerus 54.6981 6.57061 -72.5245
rradius 63.4767
rwrist -19.7978
rhand -47.688 14.051
rfingers 7.12502
rthumb -20.3685 -14.9008
lclavicle -1.74931e-014 -1.04958e-013
lhumerus 50.8287 -2.67558 69.5101
lradius 57.4759
lwrist 23.2955
lhand -30.3009 58.8046
lfingers 7.12502
lthumb -3.60801 88.7539
rfemur -29.3428 -4.98935 25.2158
rtibia 32.2637
rfoot -17.5088 -14.2633
rtoes -1.62126
lfemur -25.1762 6.34349 -12.6449
ltibia 21.8017
lfoot -9.28853 0.655599
ltoes -13.1971
83
root 11.3906 18.3994 4.44965 -164.446 -8.53545 179.815
lowerback 8.0768 0.584479 3.09264
upperback 5.32184 0.128497 6.05764
thorax 1.00904 -0.307637 4.53777
lowerneck -11.4532 -2.9389 -10.0885
upperneck 36.944 -13.7868 14.1516
head 17.1879 -6.95944 5.22692
rclavicle 2.22639e-014 1.90833e-014
rhumerus 54.8868 6.68582 -72.2068
rradius 63.8942
rwrist -19.8669
rhand -47.6347 13.4853
rfingers 7.12502
rthumb -20.3174 -15.472
lclavicle 2.22639e-014 1.90833e-014
lhumerus 50.8152 -2.44314 69.3287
lradius 58.3084
lwrist 23.6687
lhand -30.3329 59.1528
lfingers 7.12502
lthumb -3.6389 89.1015
rfemur -29.0441 -4.57701 25.3184
rtibia 32.2594
rfoot -17.1891 -14.6127
rtoes 0.128883
lfemur -25.3773 6.35681 -12.3141
ltibia 21.3233
lfoot -9.34425 -0.114951
ltoes -13.4224
84
root 11.3713 18.3959 4.43085 -164.567 -8.37855 179.756
lowerback 8.26217 0.605017 3.07907
upperback 5.52029 0.113608 6.12569
thorax 1.11633 -0.333853 4.61987
lowerneck -10.6256 -2.74403 -10.4453
upperneck 36.6184 -13.8221 14.8898
head 16.9233 -7.01419 5.63766
rclavicle 1.35174e-014 -3.18055e-015
rhumerus 55.1802 6.7632 -71.7707
rradius 64.3172
rwrist -20.0532
rhand -47.672 13.2437
rfingers 7.12502
rthumb -20.3532 -15.7097
lclavicle 1.35174e-014 -3.18055e-015
lhumerus 50.8011 -2.25893 69.0211
lradius 59.1544
lwrist 24.1634
lhand -30.6007 59.9532
lfingers 7.12502
lthumb -3.89754 89.8974
rfemur -28.845 -4.4781 25.1366
rtibia 32.3048
rfoot -17.6066 -14.6156
rtoes 1.79349
lfemur -25.4233 6.27037 -12.334
ltibia 20.7507
lfoot -9.31901 -0.443947
ltoes -14.3983
85
root 11.3507 18.4026 4.41716 -164.42 -8.19238 179.358
lowerback 8.27206 0.616775 2.73132
upperback 5.69949 0.0762117 6.14456
thorax 1.29788 -0.370762 4.84007
lowerneck -10.5079 -2.59964 -10.5832
upperneck 37.0221 -13.9002 14.9452
head 17.1501 -7.09976 5.70019
rclavicle -2.38542e-015 -1.59028e-015
rhumerus 55.9028 6.79575 -71.1808
rradius 64.5863
rwrist -20.11
rhand -47.4272 12.4765
rfingers 7.12502
rthumb -20.1179 -16.5019
lclavicle -2.38542e-015 -1.59028e-015
lhumerus 50.8874 -2.03162 68.5876
lradius 60.0369
lwrist 24.5817
lhand -30.7264 60.8977
lfingers 7.12502
lthumb -4.01893 269.161
rfemur -28.9679 -4.62662 24.6451
rtibia 32.4252
rfoot -17.1592 -14.4478
rtoes 0.997244
lfemur -25.6613 6.09017 -12.7594
ltibia 20.0342
lfoot -8.97798 -0.603543
ltoes -16.9651
86
root 11.3273 18.4109 4.40588 -164.204 -8.00376 179.011
lowerback 8.2443 0.634808 2.48358
upperback 5.87984 0.0544367 6.12305
thorax 1.50154 -0.396202 4.95966
lowerneck -10.7138 -2.5308 -10.3638
upperneck 37.6594 -14.0433 14.5741
head 17.5268 -7.18258 5.48289
rclavicle -3.10104e-014 -7.95139e-014
rhumerus 56.5042 6.93036 -70.7718
rradius 64.9609
rwrist -20.0084
rhand -46.5686 11.1501
rfingers 7.12502
rthumb -19.2925 -17.913
lclavicle -3.10104e-014 -7.95139e-014
lhumerus 51.0192 -1.79465 68.2793
lradius 61.057
lwrist 24.5922
lhand -30.7199 61.6346
lfingers 7.12502
lthumb -4.0127 268.423
rfemur -29.1911 -4.69243 24.1863
rtibia 32.564
rfoot -17.108 -14.3618
rtoes 0.730015
lfemur -25.9682 6.0585 -13.1857
ltibia 19.2826
lfoot -8.58812 -0.898397
ltoes -19.3768
87
root 11.305 18.4089 4.39124 -164.133 -7.79337 178.933
lowerback 8.21154 0.694592 2.43796
upperback 6.15324 0.0698034 6.14678
thorax 1.80589 -0.40959 5.01017
lowerneck -10.4388 -2.5694 -10.1337
upperneck 37.5757 -14.2053 14.5133
head 17.4126 -7.23206 5.38051
rclavicle -3.33958e-014 -6.36111e-015
rhumerus 56.8205 6.89619 -70.163
rradius 65.7542
rwrist -20.2351
rhand -46.0497 10.1306
rfingers 7.12502
rthumb -18.7935 -18.9815
lclavicle -3.33958e-014 -6.36111e-015
lhumerus 51.1875 -1.46937 68.1841
lradius 62.151
lwrist 24.1363
lhand -30.3148 61.9794
lfingers 7.12502
lthumb -3.6215 268.072
rfemur -29.2989 -4.92486 24.077
rtibia 32.6463
rfoot -17.1333 -14.0325
rtoes -0.0559199
lfemur -26.1485 6.05795 -13.2796
ltibia 18.7201
lfoot -8.32997 -1.04014
ltoes -20.9326
88
root 11.2883 18.4088 4.38192 -164.216 -7.72876 178.968
lowerback 8.41036 0.722227 2.43978
upperback 6.38341 0.0457016 6.27478
thorax 1.94222 -0.449639 5.14853
lowerneck -9.92648 -2.58464 -10.0465
upperneck 37.3972 -14.3707 14.5893
head 17.214 -7.30878 5.37129
rclavicle 0 -6.52014e-014
rhumerus 56.9346 6.72611 -69.2766
rradius 66.8364
rwrist -20.6625
rhand -46.4725 9.80979
rfingers 7.12502
rthumb -19.2001 -19.2624
lclavicle 0 -6.52014e-014
lhumerus 51.2525 -1.05947 68.187
lradius 63.2816
lwrist 23.6537
lhand -29.8261 62.0908
lfingers 7.12502
lthumb -3.14949 267.953
rfemur -29.2288 -5.30925 24.1397
rtibia 32.6705
rfoot -17.1546 -13.5616
rtoes -0.660962
lfemur -26.2452 5.87497 -13.1374
ltibia 18.3288
lfoot -8.09376 -1.17479
ltoes -20.0221
89
root 11.2666 18.4146 4.37395 -164.319 -7.64349 179.082
lowerback 8.69898 0.749154 2.63461
upperback 6.58567 0.038073 6.37771
thorax 2.0008 -0.474959 5.15005
lowerneck -9.71472 -2.51058 -10.1601
upperneck 37.6311 -14.757 14.9656
head 17.439 -7.49542 5.51292
rclavicle 2.06736e-014 8.5875e-014
rhumerus 56.8936 6.66243 -68.7155
rradius 67.8669
rwrist -20.5674
rhand -46.7635 9.94463
rfingers 7.12502
rthumb -19.4799 -19.0995
lclavicle 2.06736e-014 8.5875e-014
lhumerus 51.3137 -0.71708 68.1755
lradius 64.3988
lwrist 23.2864
lhand -29.7971 62.2402
lfingers 7.12502
lthumb -3.12149 267.803
rfemur -29.0807 -5.28458 24.1664
rtibia 32.6416
rfoot -17.4597 -13.4657
rtoes -0.173782
lfemur -26.3734 5.8932 -12.9932
ltibia 18.0123
lfoot -7.82036 -1.26424
ltoes -18.5371
90
root 11.2422 18.4161 4.36031 -164.232 -7.40986 179.173
lowerback 8.67224 0.822834 2.91131
upperback 6.88534 0.0725192 6.39344
thorax 2.33356 -0.473892 5.00813
lowerneck -9.62447 -2.5537 -10.3174
upperneck 37.7563 -15.268 15.376
head 17.6807 -7.71631 5.64859
rclavicle 1.27222e-014 5.40694e-014
rhumerus 57.1862 6.48622 -68.2993
rradius 68.7277
rwrist -20.5553
rhand -47.0205 10.3121
rfingers 7.12502
rthumb -19.727 -18.707
lclavicle 1.27222e-014 5.40694e-014
lhumerus 51.5511 -0.398538 68.091
lradius 65.5979
lwrist 22.8354
lhand -29.9124 62.2703
lfingers 7.12502
lthumb -3.23285 267.774
rfemur -29.0882 -4.88398 24.0844
rtibia 32.5679
rfoot -17.7216 -13.6398
rtoes 0.604538
lfemur -26.745 6.0941 -12.9649
ltibia 17.832
lfoot -7.52521 -1.178
ltoes -18.717
